<svg width="213" height="58" viewBox="0 0 213 58" fill="none" xmlns="http://www.w3.org/2000/svg">
<path d="M128.705 11.0909V46H124.682V11.0909H128.705Z" fill="#D6D6D7"/>
<path d="M56.7045 30.25V46H52.6818V19.8182H56.5682V23.9091H56.9091C57.5227 22.5795 58.4545 21.5114 59.7045 20.7045C60.9545 19.8864 62.5682 19.4773 64.5455 19.4773C66.3182 19.4773 67.8693 19.8409 69.1989 20.5682C70.5284 21.2841 71.5625 22.375 72.3011 23.8409C73.0398 25.2955 73.4091 27.1364 73.4091 29.3636V46H69.3864V29.6364C69.3864 27.5795 68.8523 25.9773 67.7841 24.8295C66.7159 23.6705 65.25 23.0909 63.3864 23.0909C62.1023 23.0909 60.9545 23.3693 59.9432 23.9261C58.9432 24.483 58.1534 25.2955 57.5739 26.3636C56.9943 27.4318 56.7045 28.7273 56.7045 30.25Z" fill="#D6D6D7"/>
<path d="M91.0682 19.8182V23.2273H77.5V19.8182H91.0682ZM81.4545 13.5455H85.4773V38.5C85.4773 39.6364 85.642 40.4886 85.9716 41.0568C86.3125 41.6136 86.7443 41.9886 87.267 42.1818C87.8011 42.3636 88.3636 42.4545 88.9545 42.4545C89.3977 42.4545 89.7614 42.4318 90.0455 42.3864C90.3295 42.3295 90.5568 42.2841 90.7273 42.25L91.5455 45.8636C91.2727 45.9659 90.892 46.0682 90.4034 46.1705C89.9148 46.2841 89.2955 46.3409 88.5455 46.3409C87.4091 46.3409 86.2955 46.0966 85.2045 45.608C84.125 45.1193 83.2273 44.375 82.5114 43.375C81.8068 42.375 81.4545 41.1136 81.4545 39.5909V13.5455Z" fill="#D6D6D7"/>
<path d="M107.659 46.5455C105.136 46.5455 102.96 45.9886 101.131 44.875C99.3125 43.75 97.9091 42.1818 96.9205 40.1705C95.9432 38.1477 95.4545 35.7955 95.4545 33.1136C95.4545 30.4318 95.9432 28.0682 96.9205 26.0227C97.9091 23.9659 99.2841 22.3636 101.045 21.2159C102.818 20.0568 104.886 19.4773 107.25 19.4773C108.614 19.4773 109.96 19.7045 111.29 20.1591C112.619 20.6136 113.83 21.3523 114.92 22.375C116.011 23.3864 116.881 24.7273 117.528 26.3977C118.176 28.0682 118.5 30.125 118.5 32.5682V34.2727H98.3182V30.7955H114.409C114.409 29.3182 114.114 28 113.523 26.8409C112.943 25.6818 112.114 24.767 111.034 24.0966C109.966 23.4261 108.705 23.0909 107.25 23.0909C105.648 23.0909 104.261 23.4886 103.091 24.2841C101.932 25.0682 101.04 26.0909 100.415 27.3523C99.7898 28.6136 99.4773 29.9659 99.4773 31.4091V33.7273C99.4773 35.7045 99.8182 37.3807 100.5 38.7557C101.193 40.1193 102.153 41.1591 103.381 41.875C104.608 42.5795 106.034 42.9318 107.659 42.9318C108.716 42.9318 109.67 42.7841 110.523 42.4886C111.386 42.1818 112.131 41.7273 112.756 41.125C113.381 40.5114 113.864 39.75 114.205 38.8409L118.091 39.9318C117.682 41.25 116.994 42.4091 116.028 43.4091C115.063 44.3977 113.869 45.1705 112.449 45.7273C111.028 46.2727 109.432 46.5455 107.659 46.5455Z" fill="#D6D6D7"/>
<path d="M140.705 11.0909V46H136.682V11.0909H140.705Z" fill="#D6D6D7"/>
<path d="M148.682 46V19.8182H152.705V46H148.682ZM150.727 15.4545C149.943 15.4545 149.267 15.1875 148.699 14.6534C148.142 14.1193 147.864 13.4773 147.864 12.7273C147.864 11.9773 148.142 11.3352 148.699 10.8011C149.267 10.267 149.943 10 150.727 10C151.511 10 152.182 10.267 152.739 10.8011C153.307 11.3352 153.591 11.9773 153.591 12.7273C153.591 13.4773 153.307 14.1193 152.739 14.6534C152.182 15.1875 151.511 15.4545 150.727 15.4545Z" fill="#D6D6D7"/>
<path d="M196.386 46.6136C194.727 46.6136 193.222 46.3011 191.869 45.6761C190.517 45.0398 189.443 44.125 188.648 42.9318C187.852 41.7273 187.455 40.2727 187.455 38.5682C187.455 37.0682 187.75 35.8523 188.341 34.9205C188.932 33.9773 189.722 33.2386 190.71 32.7045C191.699 32.1705 192.79 31.7727 193.983 31.5114C195.188 31.2386 196.398 31.0227 197.614 30.8636C199.205 30.6591 200.494 30.5057 201.483 30.4034C202.483 30.2898 203.21 30.1023 203.665 29.8409C204.131 29.5795 204.364 29.125 204.364 28.4773V28.3409C204.364 26.6591 203.903 25.3523 202.983 24.4205C202.074 23.4886 200.693 23.0227 198.841 23.0227C196.92 23.0227 195.415 23.4432 194.324 24.2841C193.233 25.125 192.466 26.0227 192.023 26.9773L188.205 25.6136C188.886 24.0227 189.795 22.7841 190.932 21.8977C192.08 21 193.33 20.375 194.682 20.0227C196.045 19.6591 197.386 19.4773 198.705 19.4773C199.545 19.4773 200.511 19.5795 201.602 19.7841C202.705 19.9773 203.767 20.3807 204.79 20.9943C205.824 21.608 206.682 22.5341 207.364 23.7727C208.045 25.0114 208.386 26.6705 208.386 28.75V46H204.364V42.4545H204.159C203.886 43.0227 203.432 43.6307 202.795 44.2784C202.159 44.9261 201.313 45.4773 200.256 45.9318C199.199 46.3864 197.909 46.6136 196.386 46.6136ZM197 43C198.591 43 199.932 42.6875 201.023 42.0625C202.125 41.4375 202.955 40.6307 203.511 39.642C204.08 38.6534 204.364 37.6136 204.364 36.5227V32.8409C204.193 33.0455 203.818 33.233 203.239 33.4034C202.67 33.5625 202.011 33.7045 201.261 33.8295C200.523 33.9432 199.801 34.0455 199.097 34.1364C198.403 34.2159 197.841 34.2841 197.409 34.3409C196.364 34.4773 195.386 34.6989 194.477 35.0057C193.58 35.3011 192.852 35.75 192.295 36.3523C191.75 36.9432 191.477 37.75 191.477 38.7727C191.477 40.1705 191.994 41.2273 193.028 41.9432C194.074 42.6477 195.398 43 197 43Z" fill="#D6D6D7"/>
<path d="M168.386 46.6136C166.727 46.6136 165.222 46.3011 163.869 45.6761C162.517 45.0398 161.443 44.125 160.648 42.9318C159.852 41.7273 159.455 40.2727 159.455 38.5682C159.455 37.0682 159.75 35.8523 160.341 34.9205C160.932 33.9773 161.722 33.2386 162.71 32.7045C163.699 32.1705 164.79 31.7727 165.983 31.5114C167.188 31.2386 168.398 31.0227 169.614 30.8636C171.205 30.6591 172.494 30.5057 173.483 30.4034C174.483 30.2898 175.21 30.1023 175.665 29.8409C176.131 29.5795 176.364 29.125 176.364 28.4773V28.3409C176.364 26.6591 175.903 25.3523 174.983 24.4205C174.074 23.4886 172.693 23.0227 170.841 23.0227C168.92 23.0227 167.415 23.4432 166.324 24.2841C165.233 25.125 164.466 26.0227 164.023 26.9773L160.205 25.6136C160.886 24.0227 161.795 22.7841 162.932 21.8977C164.08 21 165.33 20.375 166.682 20.0227C168.045 19.6591 169.386 19.4773 170.705 19.4773C171.545 19.4773 172.511 19.5795 173.602 19.7841C174.705 19.9773 175.767 20.3807 176.79 20.9943C177.824 21.608 178.682 22.5341 179.364 23.7727C180.045 25.0114 180.386 26.6705 180.386 28.75V46H176.364V42.4545H176.159C175.886 43.0227 175.432 43.6307 174.795 44.2784C174.159 44.9261 173.313 45.4773 172.256 45.9318C171.199 46.3864 169.909 46.6136 168.386 46.6136ZM169 43C170.591 43 171.932 42.6875 173.023 42.0625C174.125 41.4375 174.955 40.6307 175.511 39.642C176.08 38.6534 176.364 37.6136 176.364 36.5227V32.8409C176.193 33.0455 175.818 33.233 175.239 33.4034C174.67 33.5625 174.011 33.7045 173.261 33.8295C172.523 33.9432 171.801 34.0455 171.097 34.1364C170.403 34.2159 169.841 34.2841 169.409 34.3409C168.364 34.4773 167.386 34.6989 166.477 35.0057C165.58 35.3011 164.852 35.75 164.295 36.3523C163.75 36.9432 163.477 37.75 163.477 38.7727C163.477 40.1705 163.994 41.2273 165.028 41.9432C166.074 42.6477 167.398 43 169 43Z" fill="#D6D6D7"/>
<path d="M19.5 13L36.3875 46H2.6125L19.5 13Z" fill="url(#paint0_linear_44_7)"/>
<path d="M42 13H46V46H42V13Z" fill="url(#paint1_linear_44_7)"/>
<path d="M19.5 13L36.3875 46H2.6125L19.5 13Z" fill="url(#paint2_linear_44_7)"/>
<defs>
<linearGradient id="paint0_linear_44_7" x1="19.5" y1="13" x2="19.5" y2="57" gradientUnits="userSpaceOnUse">
<stop offset="0.275" stop-color="#12A150"/>
<stop offset="1" stop-color="#66AAF9"/>
</linearGradient>
<linearGradient id="paint1_linear_44_7" x1="44" y1="13" x2="44" y2="46" gradientUnits="userSpaceOnUse">
<stop offset="0.275" stop-color="#12A150"/>
<stop offset="1" stop-color="#66AAF9"/>
</linearGradient>
<linearGradient id="paint2_linear_44_7" x1="19.5" y1="13" x2="19.5" y2="57" gradientUnits="userSpaceOnUse">
<stop offset="0.275" stop-color="#12A150"/>
<stop offset="1" stop-color="#66AAF9"/>
</linearGradient>
</defs>
</svg>
