<svg width="195" height="54" viewBox="0 0 195 54" fill="none" xmlns="http://www.w3.org/2000/svg">
<path d="M59.288 37L63.464 20.608H69.248L73.4 37H70.088L69.176 33.688H63.44L62.576 37H59.288ZM63.968 31.024H68.696L66.848 23.296H65.84L63.968 31.024ZM80.3193 42.496C79.0393 42.496 77.9673 42.4 77.1033 42.208C76.2553 42.016 75.6153 41.664 75.1833 41.152C74.7513 40.656 74.5353 39.936 74.5353 38.992C74.5353 38.576 74.5913 38.2 74.7033 37.864C74.8313 37.544 75.0233 37.24 75.2793 36.952C75.5513 36.664 75.8873 36.368 76.2873 36.064C76.0633 35.904 75.8793 35.672 75.7353 35.368C75.6073 35.048 75.5433 34.704 75.5433 34.336C75.5433 34.144 75.6553 33.864 75.8793 33.496C76.1193 33.112 76.3513 32.776 76.5753 32.488C76.2553 32.344 75.9513 32.136 75.6633 31.864C75.3753 31.576 75.1353 31.192 74.9433 30.712C74.7673 30.232 74.6793 29.616 74.6793 28.864C74.6793 27.344 75.1113 26.272 75.9753 25.648C76.8553 25.008 78.1033 24.688 79.7193 24.688C80.1353 24.688 80.5833 24.72 81.0633 24.784C81.5433 24.848 81.9273 24.912 82.2153 24.976L86.1273 24.904V27.064L84.3033 27.04C84.4473 27.232 84.5753 27.48 84.6873 27.784C84.8153 28.072 84.8793 28.432 84.8793 28.864C84.8793 29.968 84.6873 30.824 84.3033 31.432C83.9353 32.04 83.3753 32.464 82.6233 32.704C81.8713 32.928 80.9193 33.04 79.7673 33.04C79.6393 33.04 79.4633 33.032 79.2393 33.016C79.0153 32.984 78.8313 32.96 78.6873 32.944C78.6233 33.104 78.5593 33.288 78.4953 33.496C78.4313 33.688 78.3993 33.824 78.3993 33.904C78.3993 34.112 78.4633 34.272 78.5913 34.384C78.7353 34.496 79.0153 34.576 79.4313 34.624C79.8633 34.656 80.5113 34.672 81.3753 34.672C82.5113 34.672 83.4153 34.776 84.0873 34.984C84.7753 35.192 85.2633 35.56 85.5513 36.088C85.8393 36.616 85.9833 37.36 85.9833 38.32C85.9833 39.744 85.4793 40.792 84.4713 41.464C83.4793 42.152 82.0953 42.496 80.3193 42.496ZM80.1513 40.12C81.1433 40.12 81.8553 40 82.2873 39.76C82.7353 39.536 82.9593 39.16 82.9593 38.632C82.9593 38.216 82.8793 37.912 82.7193 37.72C82.5753 37.528 82.3273 37.4 81.9753 37.336C81.6233 37.288 81.1433 37.264 80.5353 37.264C80.3753 37.264 80.1833 37.256 79.9593 37.24C79.7353 37.24 79.5033 37.232 79.2633 37.216C79.0393 37.216 78.8313 37.208 78.6393 37.192C78.4633 37.176 78.3353 37.168 78.2553 37.168C77.9033 37.408 77.6633 37.624 77.5353 37.816C77.4073 38.024 77.3433 38.296 77.3433 38.632C77.3433 39 77.4313 39.288 77.6073 39.496C77.7833 39.72 78.0713 39.88 78.4713 39.976C78.8873 40.072 79.4473 40.12 80.1513 40.12ZM79.7433 30.784C80.4793 30.784 80.9993 30.64 81.3033 30.352C81.6233 30.048 81.7833 29.552 81.7833 28.864C81.7833 28.176 81.6233 27.68 81.3033 27.376C80.9993 27.072 80.4793 26.92 79.7433 26.92C79.0393 26.92 78.5273 27.072 78.2073 27.376C77.9033 27.68 77.7513 28.176 77.7513 28.864C77.7513 29.552 77.9033 30.048 78.2073 30.352C78.5273 30.64 79.0393 30.784 79.7433 30.784ZM92.6842 37.264C91.3562 37.264 90.3002 37.04 89.5162 36.592C88.7482 36.144 88.1962 35.464 87.8602 34.552C87.5242 33.64 87.3562 32.496 87.3562 31.12C87.3562 29.632 87.5642 28.416 87.9802 27.472C88.4122 26.528 89.0362 25.832 89.8522 25.384C90.6682 24.92 91.6762 24.688 92.8762 24.688C94.6522 24.688 95.9882 25.136 96.8842 26.032C97.7962 26.928 98.2522 28.344 98.2522 30.28L98.1082 32.056H90.5722C90.5882 32.952 90.7722 33.624 91.1242 34.072C91.4762 34.52 92.0842 34.744 92.9482 34.744C93.4442 34.744 93.9882 34.736 94.5802 34.72C95.1722 34.688 95.7562 34.656 96.3322 34.624C96.9242 34.592 97.4282 34.56 97.8442 34.528L97.9162 36.76C97.5162 36.824 97.0122 36.896 96.4042 36.976C95.7962 37.056 95.1642 37.12 94.5082 37.168C93.8682 37.232 93.2602 37.264 92.6842 37.264ZM90.5722 30.016H95.0602C95.0602 28.928 94.8842 28.168 94.5322 27.736C94.1962 27.304 93.6442 27.088 92.8762 27.088C92.1242 27.088 91.5482 27.312 91.1482 27.76C90.7642 28.208 90.5722 28.96 90.5722 30.016ZM100.375 37V24.952H103.567V25.72C103.823 25.56 104.135 25.408 104.503 25.264C104.871 25.104 105.255 24.968 105.655 24.856C106.071 24.744 106.471 24.688 106.855 24.688C107.975 24.688 108.839 24.888 109.447 25.288C110.071 25.672 110.511 26.312 110.767 27.208C111.023 28.088 111.151 29.272 111.151 30.76V37H107.935V30.928C107.935 30.096 107.887 29.432 107.791 28.936C107.695 28.424 107.511 28.056 107.239 27.832C106.967 27.608 106.567 27.496 106.039 27.496C105.751 27.496 105.447 27.528 105.127 27.592C104.823 27.64 104.527 27.712 104.239 27.808C103.967 27.904 103.743 28 103.567 28.096V37H100.375ZM117.864 37.288C116.984 37.288 116.272 37.16 115.728 36.904C115.184 36.648 114.792 36.208 114.552 35.584C114.328 34.944 114.216 34.056 114.216 32.92V27.616H112.8V24.952H114.216V21.76H117.408V24.952H120.48V27.616H117.408V32.08C117.408 32.704 117.432 33.192 117.48 33.544C117.544 33.896 117.672 34.144 117.864 34.288C118.056 34.432 118.352 34.504 118.752 34.504C118.864 34.504 119.032 34.496 119.256 34.48C119.48 34.464 119.704 34.448 119.928 34.432C120.152 34.416 120.336 34.4 120.48 34.384L120.576 36.952C120.192 37.016 119.728 37.088 119.184 37.168C118.656 37.248 118.216 37.288 117.864 37.288ZM122.457 37V20.608H127.785L131.097 31.552L134.337 20.608H139.737V37H136.425V24.856H136.089L132.657 36.568H129.537L126.105 24.856H125.769V37H122.457ZM145.706 37.264C144.458 37.264 143.514 36.952 142.874 36.328C142.25 35.688 141.938 34.728 141.938 33.448C141.938 32.552 142.098 31.856 142.418 31.36C142.738 30.848 143.21 30.48 143.834 30.256C144.474 30.016 145.25 29.872 146.162 29.824L149.09 29.56V28.84C149.09 28.264 148.946 27.864 148.658 27.64C148.37 27.4 147.946 27.28 147.386 27.28C146.938 27.28 146.418 27.296 145.826 27.328C145.25 27.36 144.674 27.4 144.098 27.448C143.538 27.496 143.05 27.544 142.634 27.592L142.538 25.336C142.954 25.24 143.45 25.144 144.026 25.048C144.618 24.936 145.234 24.848 145.874 24.784C146.514 24.72 147.106 24.688 147.65 24.688C148.674 24.688 149.53 24.816 150.218 25.072C150.906 25.328 151.426 25.752 151.778 26.344C152.13 26.92 152.306 27.704 152.306 28.696V34.192C152.338 34.416 152.458 34.592 152.666 34.72C152.874 34.832 153.114 34.912 153.386 34.96L153.314 37.168C152.93 37.184 152.554 37.192 152.186 37.192C151.818 37.192 151.506 37.168 151.25 37.12C150.882 37.072 150.562 36.976 150.29 36.832C150.034 36.688 149.826 36.536 149.666 36.376C149.41 36.488 149.066 36.616 148.634 36.76C148.202 36.904 147.73 37.024 147.218 37.12C146.722 37.216 146.218 37.264 145.706 37.264ZM146.474 34.888C146.778 34.888 147.098 34.856 147.434 34.792C147.77 34.728 148.082 34.656 148.37 34.576C148.674 34.48 148.914 34.392 149.09 34.312V31.552L146.642 31.768C146.114 31.816 145.73 31.976 145.49 32.248C145.266 32.504 145.154 32.872 145.154 33.352C145.154 33.832 145.258 34.208 145.466 34.48C145.69 34.752 146.026 34.888 146.474 34.888ZM159.469 37.264C158.941 37.264 158.373 37.232 157.765 37.168C157.173 37.12 156.613 37.056 156.085 36.976C155.573 36.896 155.133 36.816 154.765 36.736L154.861 34.36C155.277 34.408 155.741 34.464 156.253 34.528C156.781 34.592 157.293 34.648 157.789 34.696C158.301 34.728 158.717 34.744 159.037 34.744C159.517 34.744 159.909 34.704 160.213 34.624C160.533 34.544 160.773 34.416 160.933 34.24C161.093 34.048 161.173 33.776 161.173 33.424C161.173 33.152 161.101 32.944 160.957 32.8C160.829 32.656 160.573 32.536 160.189 32.44C159.821 32.328 159.277 32.216 158.557 32.104C157.661 31.976 156.917 31.792 156.325 31.552C155.749 31.312 155.325 30.96 155.053 30.496C154.781 30.016 154.645 29.368 154.645 28.552C154.645 27.56 154.861 26.784 155.293 26.224C155.725 25.664 156.301 25.272 157.021 25.048C157.741 24.808 158.525 24.688 159.373 24.688C159.933 24.688 160.509 24.72 161.101 24.784C161.693 24.832 162.253 24.896 162.781 24.976C163.309 25.056 163.749 25.136 164.101 25.216L164.005 27.64C163.605 27.576 163.141 27.52 162.613 27.472C162.085 27.408 161.557 27.36 161.029 27.328C160.517 27.296 160.085 27.28 159.733 27.28C159.365 27.28 159.037 27.32 158.749 27.4C158.461 27.464 158.237 27.576 158.077 27.736C157.933 27.896 157.861 28.136 157.861 28.456C157.861 28.68 157.925 28.864 158.053 29.008C158.181 29.152 158.421 29.28 158.773 29.392C159.141 29.488 159.669 29.584 160.357 29.68C161.349 29.824 162.141 30.024 162.733 30.28C163.325 30.536 163.749 30.904 164.005 31.384C164.277 31.864 164.413 32.512 164.413 33.328C164.413 34.784 163.981 35.808 163.117 36.4C162.269 36.976 161.053 37.264 159.469 37.264ZM170.739 37.288C169.859 37.288 169.147 37.16 168.603 36.904C168.059 36.648 167.667 36.208 167.427 35.584C167.203 34.944 167.091 34.056 167.091 32.92V27.616H165.675V24.952H167.091V21.76H170.283V24.952H173.355V27.616H170.283V32.08C170.283 32.704 170.307 33.192 170.355 33.544C170.419 33.896 170.547 34.144 170.739 34.288C170.931 34.432 171.227 34.504 171.627 34.504C171.739 34.504 171.907 34.496 172.131 34.48C172.355 34.464 172.579 34.448 172.803 34.432C173.027 34.416 173.211 34.4 173.355 34.384L173.451 36.952C173.067 37.016 172.603 37.088 172.059 37.168C171.531 37.248 171.091 37.288 170.739 37.288ZM180.012 37.264C178.684 37.264 177.628 37.04 176.844 36.592C176.076 36.144 175.524 35.464 175.188 34.552C174.852 33.64 174.684 32.496 174.684 31.12C174.684 29.632 174.892 28.416 175.308 27.472C175.74 26.528 176.364 25.832 177.18 25.384C177.996 24.92 179.004 24.688 180.204 24.688C181.98 24.688 183.316 25.136 184.212 26.032C185.124 26.928 185.58 28.344 185.58 30.28L185.436 32.056H177.9C177.916 32.952 178.1 33.624 178.452 34.072C178.804 34.52 179.412 34.744 180.276 34.744C180.772 34.744 181.316 34.736 181.908 34.72C182.5 34.688 183.084 34.656 183.66 34.624C184.252 34.592 184.756 34.56 185.172 34.528L185.244 36.76C184.844 36.824 184.34 36.896 183.732 36.976C183.124 37.056 182.492 37.12 181.836 37.168C181.196 37.232 180.588 37.264 180.012 37.264ZM177.9 30.016H182.388C182.388 28.928 182.212 28.168 181.86 27.736C181.524 27.304 180.972 27.088 180.204 27.088C179.452 27.088 178.876 27.312 178.476 27.76C178.092 28.208 177.9 28.96 177.9 30.016ZM187.703 37V24.952H190.895V26.368C191.167 26.16 191.503 25.944 191.903 25.72C192.303 25.48 192.735 25.264 193.199 25.072C193.679 24.864 194.135 24.728 194.567 24.664V27.76C194.151 27.824 193.711 27.936 193.247 28.096C192.783 28.24 192.343 28.4 191.927 28.576C191.527 28.752 191.183 28.912 190.895 29.056V37H187.703Z" fill="white"/>
<path d="M0 14C0 6.26801 6.26801 0 14 0H40C47.732 0 54 6.26801 54 14V54H14C6.26801 54 0 47.732 0 40V14Z" fill="white"/>
<path d="M11.384 37L16.952 15.144H24.664L30.2 37H25.784L24.568 32.584H16.92L15.768 37H11.384ZM17.624 29.032H23.928L21.464 18.728H20.12L17.624 29.032ZM32.6098 37V15.144H37.0258V37H32.6098Z" fill="url(#paint0_linear_118_7)"/>
<defs>
<linearGradient id="paint0_linear_118_7" x1="32.5" y1="9" x2="57.7069" y2="9" gradientUnits="userSpaceOnUse">
<stop stop-color="#7C3AED"/>
<stop offset="1" stop-color="#C318A8"/>
</linearGradient>
</defs>
</svg>
